<?xml version="1.0" standalone="no"?>
<!DOCTYPE svg PUBLIC "-//W3C//DTD SVG 20010904//EN"
 "http://www.w3.org/TR/2001/REC-SVG-20010904/DTD/svg10.dtd">
<svg version="1.0" xmlns="http://www.w3.org/2000/svg"
 width="512.000000pt" height="512.000000pt" viewBox="0 0 512.000000 512.000000"
 preserveAspectRatio="xMidYMid meet">
<metadata>
Created by potrace 1.14, written by Peter Selinger 2001-2017
</metadata>
<g transform="translate(0.000000,512.000000) scale(0.100000,-0.100000)"
fill="#000000" stroke="none">
<path d="M0 2560 l0 -2560 2560 0 2560 0 0 2560 0 2560 -2560 0 -2560 0 0
-2560z m2832 1081 c9 5 170 9 358 9 l341 0 14 -32 c8 -18 22 -68 31 -110 l17
-77 49 44 c28 25 80 59 116 77 60 30 75 33 154 33 64 0 88 3 88 13 0 19 42 6
150 -45 185 -89 313 -255 355 -463 21 -102 16 -290 -9 -385 -50 -184 -195
-353 -373 -432 -34 -15 -63 -32 -63 -36 0 -5 117 -179 260 -388 143 -209 260
-382 260 -385 0 -2 -127 -3 -282 -2 l-282 3 -233 348 -234 347 -133 0 c-149 0
-199 10 -342 69 l-94 38 -19 -31 c-10 -17 -31 -48 -46 -68 l-27 -37 35 -36
c19 -20 40 -49 47 -65 l12 -29 46 21 c26 11 68 28 95 39 l47 19 0 -310 0 -310
-240 0 -240 0 0 1088 c0 599 2 1091 5 1093 2 3 30 2 62 -2 32 -3 66 -2 75 2z
m-1442 -66 c54 -53 55 -54 95 -45 34 8 107 11 240 8 17 -1 44 5 61 12 28 12
37 10 127 -30 94 -41 277 -153 277 -169 0 -15 -241 -356 -250 -354 -5 2 -40
22 -77 44 -98 61 -226 118 -312 140 -84 21 -236 25 -305 8 -51 -13 -110 -58
-133 -102 -22 -43 -20 -136 3 -176 39 -65 97 -92 379 -172 329 -94 435 -137
552 -222 151 -112 216 -254 215 -467 -2 -347 -201 -574 -576 -657 -111 -24
-355 -21 -488 6 -209 42 -399 124 -558 242 -118 86 -117 71 -8 201 51 62 113
137 137 166 24 29 49 51 55 49 6 -3 47 -30 91 -62 96 -68 255 -147 345 -170
102 -26 262 -31 340 -11 144 37 212 129 181 246 -27 100 -105 141 -461 238
-102 28 -216 63 -253 77 -321 120 -447 288 -447 593 0 189 52 315 185 448 64
65 97 89 165 122 88 42 169 67 268 81 93 14 94 14 152 -44z"/>
<path d="M3170 2906 c0 -282 2 -317 16 -323 9 -3 150 -2 313 3 286 9 298 11
351 35 74 35 110 67 145 131 27 47 30 62 30 143 0 106 -14 153 -62 206 -87 96
-140 108 -505 116 l-288 6 0 -317z"/>
</g>
</svg>
